<?xml version="1.0" encoding="iso-8859-1"?>
<!-- Generator: Adobe Illustrator 16.0.0, SVG Export Plug-In . SVG Version: 6.00 Build 0)  -->
<!DOCTYPE svg PUBLIC "-//W3C//DTD SVG 1.1//EN" "http://www.w3.org/Graphics/SVG/1.1/DTD/svg11.dtd">
<svg xmlns="http://www.w3.org/2000/svg" xmlns:xlink="http://www.w3.org/1999/xlink" version="1.1" id="Capa_1" x="0px" y="0px" width="512px" height="512px" viewBox="0 0 500 500" style="enable-background:new 0 0 500 500;" xml:space="preserve">
<g>
	<path d="M185.417,66.667c0,36.819,29.848,66.667,66.667,66.667c36.818,0,66.667-29.848,66.667-66.667S288.901,0,252.083,0   C215.264,0,185.417,29.848,185.417,66.667z M326.838,125.245c0,36.819,29.849,66.667,66.667,66.667   c36.82,0,66.667-29.848,66.667-66.667c0-36.818-29.847-66.667-66.667-66.667C356.687,58.578,326.838,88.426,326.838,125.245z    M418.75,266.667c0,18.41,14.924,33.334,33.333,33.334s33.334-14.924,33.334-33.334c0-18.409-14.925-33.333-33.334-33.333   S418.75,248.258,418.75,266.667z M360.172,408.089c0,18.41,14.924,33.332,33.333,33.332c18.411,0,33.333-14.922,33.333-33.332   s-14.922-33.333-33.333-33.333C375.096,374.756,360.172,389.679,360.172,408.089z M218.751,466.667   c0,18.409,14.924,33.334,33.333,33.334c18.409,0,33.334-14.925,33.334-33.334s-14.925-33.333-33.334-33.333   C233.675,433.333,218.751,448.257,218.751,466.667z M77.329,408.089c-0.008,18.41,14.908,33.342,33.317,33.35   c18.409,0.009,33.34-14.908,33.35-33.316c0-0.012,0-0.021,0-0.031c0.01-18.411-14.907-33.343-33.316-33.351   c-18.409-0.01-33.34,14.908-33.35,33.316C77.329,408.067,77.329,408.078,77.329,408.089z M60.662,125.245   c-0.01,27.615,22.366,50.01,49.98,50.02c27.615,0.012,50.01-22.365,50.02-49.979c0-0.014,0-0.027,0-0.041   c0.012-27.613-22.365-50.008-49.979-50.02c-27.614-0.011-50.009,22.366-50.021,49.98C60.662,125.218,60.662,125.231,60.662,125.245   z M14.583,266.667c0,20.712,16.79,37.5,37.5,37.5c20.71,0,37.5-16.788,37.5-37.5c0-20.71-16.79-37.5-37.5-37.5   C31.373,229.167,14.583,245.957,14.583,266.667L14.583,266.667z" fill="#0336ab"/>
</g>
<g>
</g>
<g>
</g>
<g>
</g>
<g>
</g>
<g>
</g>
<g>
</g>
<g>
</g>
<g>
</g>
<g>
</g>
<g>
</g>
<g>
</g>
<g>
</g>
<g>
</g>
<g>
</g>
<g>
</g>
</svg>
